REM DIRINDEX 1\2,1\3,1\4
REM DIRNAME folder01,folder02,folder03,folder04
TITLE ""
FILE "DISC3Track40.mp3" MP3
  TRACK 01 AUDIO
    TITLE "0:"
    INDEX 01 00:00:00
  TRACK 02 AUDIO
    TITLE "4:cjc105_6338"
    INDEX 01 00:00:19
  TRACK 03 AUDIO
    TITLE "0:"
    INDEX 01 00:02:69
  TRACK 04 AUDIO
    TITLE "2:cjc105_6339"
    INDEX 01 00:03:45
  TRACK 05 AUDIO
    TITLE "3:cjc105_6340"
    INDEX 01 00:05:18
  TRACK 06 AUDIO
    TITLE "0:"
    INDEX 01 00:06:43
  TRACK 07 AUDIO
    TITLE "2:cjc105_6341"
    INDEX 01 00:06:59
  TRACK 08 AUDIO
    TITLE "3:cjc105_6342"
    INDEX 01 00:08:36
  TRACK 09 AUDIO
    TITLE "0:"
    INDEX 01 00:10:00
  TRACK 10 AUDIO
    TITLE "2:cjc105_6343"
    INDEX 01 00:10:18
  TRACK 11 AUDIO
    TITLE "3:cjc105_6344"
    INDEX 01 00:12:22
  TRACK 12 AUDIO
    TITLE "0:"
    INDEX 01 00:13:57
  TRACK 13 AUDIO
    TITLE "2:cjc105_6345"
    INDEX 01 00:13:71
  TRACK 14 AUDIO
    TITLE "3:cjc105_6346"
    INDEX 01 00:15:03
  TRACK 15 AUDIO
    TITLE "0:"
    INDEX 01 00:16:18
  TRACK 16 AUDIO
    TITLE "2:cjc105_6347"
    INDEX 01 00:16:36
  TRACK 17 AUDIO
    TITLE "3:cjc105_6348"
    INDEX 01 00:17:51
  TRACK 18 AUDIO
    TITLE "0:"
    INDEX 01 00:18:39
  TRACK 19 AUDIO
    TITLE "2:cjc105_6349"
    INDEX 01 00:18:62
  TRACK 20 AUDIO
    TITLE "3:cjc105_6350"
    INDEX 01 00:20:20
  TRACK 21 AUDIO
    TITLE "0:"
    INDEX 01 00:21:37
  TRACK 22 AUDIO
    TITLE "2:cjc105_6351"
    INDEX 01 00:21:51
  TRACK 23 AUDIO
    TITLE "3:cjc105_6352"
    INDEX 01 00:23:24
  TRACK 24 AUDIO
    TITLE "0:"
    INDEX 01 00:24:33
  TRACK 25 AUDIO
    TITLE "2:cjc105_6353"
    INDEX 01 00:24:57
  TRACK 26 AUDIO
    TITLE "3:cjc105_6354"
    INDEX 01 00:26:13
  TRACK 27 AUDIO
    TITLE "0:"
    INDEX 01 00:27:22
  TRACK 28 AUDIO
    TITLE "2:cjc105_6355"
    INDEX 01 00:27:36
  TRACK 29 AUDIO
    TITLE "3:cjc105_6356"
    INDEX 01 00:28:53
  TRACK 30 AUDIO
    TITLE "0:"
    INDEX 01 00:29:60
  TRACK 31 AUDIO
    TITLE "2:cjc105_6357"
    INDEX 01 00:30:03
  TRACK 32 AUDIO
    TITLE "3:cjc105_6358"
    INDEX 01 00:31:33
  TRACK 33 AUDIO
    TITLE "0:"
    INDEX 01 00:32:31
  TRACK 34 AUDIO
    TITLE "2:cjc105_6359"
    INDEX 01 00:32:52
  TRACK 35 AUDIO
    TITLE "3:cjc105_6360"
    INDEX 01 00:33:73
  TRACK 36 AUDIO
    TITLE "0:"
    INDEX 01 00:35:06
  TRACK 37 AUDIO
    TITLE "2:cjc105_6361"
    INDEX 01 00:35:27
  TRACK 38 AUDIO
    TITLE "3:cjc105_6362"
    INDEX 01 00:36:33
  TRACK 39 AUDIO
    TITLE "0:"
    INDEX 01 00:37:46
  TRACK 40 AUDIO
    TITLE "2:cjc105_6363"
    INDEX 01 00:37:59
  TRACK 41 AUDIO
    TITLE "3:cjc105_6364"
    INDEX 01 00:38:59
  TRACK 42 AUDIO
    TITLE "0:"
    INDEX 01 00:40:07
  TRACK 43 AUDIO
    TITLE "2:cjc105_6365"
    INDEX 01 00:40:24
  TRACK 44 AUDIO
    TITLE "3:cjc105_6366"
    INDEX 01 00:41:53
  TRACK 45 AUDIO
    TITLE "0:"
    INDEX 01 00:42:72
  TRACK 46 AUDIO
    TITLE "2:cjc105_6367"
    INDEX 01 00:43:19
  TRACK 47 AUDIO
    TITLE "3:cjc105_6368"
    INDEX 01 00:44:30
  TRACK 48 AUDIO
    TITLE "0:"
    INDEX 01 00:45:49
  TRACK 49 AUDIO
    TITLE "2:cjc105_6369"
    INDEX 01 00:45:73
  TRACK 50 AUDIO
    TITLE "3:cjc105_6370"
    INDEX 01 00:47:13
  TRACK 51 AUDIO
    TITLE "0:"
    INDEX 01 00:48:18
  TRACK 52 AUDIO
    TITLE "2:cjc105_6371"
    INDEX 01 00:48:42
  TRACK 53 AUDIO
    TITLE "3:cjc105_6372"
    INDEX 01 00:49:65
  TRACK 54 AUDIO
    TITLE "0:"
    INDEX 01 00:51:36
  TRACK 55 AUDIO
    TITLE "2:cjc105_6373"
    INDEX 01 00:51:58
  TRACK 56 AUDIO
    TITLE "3:cjc105_6374"
    INDEX 01 00:52:71
  TRACK 57 AUDIO
    TITLE "0:"
    INDEX 01 00:54:03
  TRACK 58 AUDIO
    TITLE "2:cjc105_6375"
    INDEX 01 00:54:29
  TRACK 59 AUDIO
    TITLE "3:cjc105_6376"
    INDEX 01 00:55:69
  TRACK 60 AUDIO
    TITLE "0:"
    INDEX 01 00:57:27
  TRACK 61 AUDIO
    TITLE "2:cjc105_6377"
    INDEX 01 00:57:52
  TRACK 62 AUDIO
    TITLE "3:cjc105_6378"
    INDEX 01 00:58:64
  TRACK 63 AUDIO
    TITLE "0:"
    INDEX 01 01:00:00
  TRACK 64 AUDIO
    TITLE "2:cjc105_6379"
    INDEX 01 01:00:25
  TRACK 65 AUDIO
    TITLE "3:cjc105_6380"
    INDEX 01 01:01:38
  TRACK 66 AUDIO
    TITLE "0:"
    INDEX 01 01:02:46
  TRACK 67 AUDIO
    TITLE "2:cjc105_6381"
    INDEX 01 01:02:67
  TRACK 68 AUDIO
    TITLE "3:cjc105_6382"
    INDEX 01 01:04:09
  TRACK 69 AUDIO
    TITLE "0:"
    INDEX 01 01:05:13
  TRACK 70 AUDIO
    TITLE "2:cjc105_6383"
    INDEX 01 01:05:32
  TRACK 71 AUDIO
    TITLE "3:cjc105_6384"
    INDEX 01 01:06:40
  TRACK 72 AUDIO
    TITLE "0:"
    INDEX 01 01:07:51
  TRACK 73 AUDIO
    TITLE "2:cjc105_6385"
    INDEX 01 01:07:72
  TRACK 74 AUDIO
    TITLE "3:cjc105_6386"
    INDEX 01 01:09:32
  TRACK 75 AUDIO
    TITLE "0:"
    INDEX 01 01:10:45
  TRACK 76 AUDIO
    TITLE "2:cjc105_6387"
    INDEX 01 01:10:67
  TRACK 77 AUDIO
    TITLE "3:cjc105_6388"
    INDEX 01 01:12:07
  TRACK 78 AUDIO
    TITLE "0:"
    INDEX 01 01:13:18
  TRACK 79 AUDIO
    TITLE "2:cjc105_6389"
    INDEX 01 01:13:40
  TRACK 80 AUDIO
    TITLE "3:cjc105_6390"
    INDEX 01 01:14:47
  TRACK 81 AUDIO
    TITLE "0:"
    INDEX 01 01:16:28
  TRACK 82 AUDIO
    TITLE "2:cjc105_6391"
    INDEX 01 01:16:50
  TRACK 83 AUDIO
    TITLE "3:cjc105_6392"
    INDEX 01 01:17:63
  TRACK 84 AUDIO
    TITLE "0:"
    INDEX 01 01:18:70
  TRACK 85 AUDIO
    TITLE "2:cjc105_6393"
    INDEX 01 01:19:15
  TRACK 86 AUDIO
    TITLE "3:cjc105_6394"
    INDEX 01 01:20:51
  TRACK 87 AUDIO
    TITLE "0:"
    INDEX 01 01:21:72
  TRACK 88 AUDIO
    TITLE "2:cjc105_6395"
    INDEX 01 01:22:19
  TRACK 89 AUDIO
    TITLE "3:cjc105_6396"
    INDEX 01 01:23:67
  TRACK 90 AUDIO
    TITLE "0:"
    INDEX 01 01:25:21
  TRACK 91 AUDIO
    TITLE "2:cjc105_6397"
    INDEX 01 01:25:43
  TRACK 92 AUDIO
    TITLE "3:cjc105_6398"
    INDEX 01 01:26:56
  TRACK 93 AUDIO
    TITLE "0:"
    INDEX 01 01:28:06
  TRACK 94 AUDIO
    TITLE "2:cjc105_6399"
    INDEX 01 01:28:27
  TRACK 95 AUDIO
    TITLE "3:cjc105_6400"
    INDEX 01 01:30:03
  TRACK 96 AUDIO
    TITLE "0:"
    INDEX 01 01:31:28
  TRACK 97 AUDIO
    TITLE "2:cjc105_6401"
    INDEX 01 01:31:51
  TRACK 98 AUDIO
    TITLE "3:cjc105_6402"
    INDEX 01 01:32:41
  TRACK 99 AUDIO
    TITLE "0:"
    INDEX 01 01:33:48
  TRACK 100 AUDIO
    TITLE "2:cjc105_6403"
    INDEX 01 01:33:68
  TRACK 101 AUDIO
    TITLE "3:cjc105_6404"
    INDEX 01 01:35:69
  TRACK 102 AUDIO
    TITLE "0:"
    INDEX 01 01:37:07
  TRACK 103 AUDIO
    TITLE "2:cjc105_6405"
    INDEX 01 01:37:26
  TRACK 104 AUDIO
    TITLE "3:cjc105_6406"
    INDEX 01 01:38:28
  TRACK 105 AUDIO
    TITLE "0:"
    INDEX 01 01:39:31
  TRACK 106 AUDIO
    TITLE "2:cjc105_6407"
    INDEX 01 01:39:53
  TRACK 107 AUDIO
    TITLE "3:cjc105_6408"
    INDEX 01 01:41:07
  TRACK 108 AUDIO
    TITLE "0:"
    INDEX 01 01:42:31
  TRACK 109 AUDIO
    TITLE "2:cjc105_6409"
    INDEX 01 01:42:45
  TRACK 110 AUDIO
    TITLE "3:cjc105_6410"
    INDEX 01 01:43:74
  TRACK 111 AUDIO
    TITLE "0:"
    INDEX 01 01:45:24
  TRACK 112 AUDIO
    TITLE "2:cjc105_6411"
    INDEX 01 01:45:45
  TRACK 113 AUDIO
    TITLE "3:cjc105_6412"
    INDEX 01 01:46:74
  TRACK 114 AUDIO
    TITLE "0:"
    INDEX 01 01:48:18
  TRACK 115 AUDIO
    TITLE "2:cjc105_6413"
    INDEX 01 01:48:42
  TRACK 116 AUDIO
    TITLE "3:cjc105_6414"
    INDEX 01 01:49:41
  TRACK 117 AUDIO
    TITLE "0:"
    INDEX 01 01:50:60
  TRACK 118 AUDIO
    TITLE "2:cjc105_6415"
    INDEX 01 01:51:09
  TRACK 119 AUDIO
    TITLE "3:cjc105_6416"
    INDEX 01 01:52:26
  TRACK 120 AUDIO
    TITLE "0:"
    INDEX 01 01:53:51
  TRACK 121 AUDIO
    TITLE "2:cjc105_6417"
    INDEX 01 01:53:70
  TRACK 122 AUDIO
    TITLE "3:cjc105_6418"
    INDEX 01 01:55:07
  TRACK 123 AUDIO
    TITLE "0:"
    INDEX 01 01:56:18
  TRACK 124 AUDIO
    TITLE "2:cjc105_6419"
    INDEX 01 01:56:39
  TRACK 125 AUDIO
    TITLE "3:cjc105_6420"
    INDEX 01 01:57:41
  TRACK 126 AUDIO
    TITLE "0:"
    INDEX 01 01:58:66
  TRACK 127 AUDIO
    TITLE "2:cjc105_6421"
    INDEX 01 01:59:14
  TRACK 128 AUDIO
    TITLE "3:cjc105_6422"
    INDEX 01 02:00:31
  TRACK 129 AUDIO
    TITLE "0:"
    INDEX 01 02:01:48
  TRACK 130 AUDIO
    TITLE "2:cjc105_6423"
    INDEX 01 02:01:72
  TRACK 131 AUDIO
    TITLE "3:cjc105_6424"
    INDEX 01 02:03:00
  TRACK 132 AUDIO
    TITLE "0:"
    INDEX 01 02:04:04
  TRACK 133 AUDIO
    TITLE "2:cjc105_6425"
    INDEX 01 02:04:23
  TRACK 134 AUDIO
    TITLE "3:cjc105_6426"
    INDEX 01 02:05:66
  TRACK 135 AUDIO
    TITLE "0:"
    INDEX 01 02:07:29
  TRACK 136 AUDIO
    TITLE "2:cjc105_6427"
    INDEX 01 02:07:53
  TRACK 137 AUDIO
    TITLE "3:cjc105_6428"
    INDEX 01 02:09:28
  TRACK 138 AUDIO
    TITLE "0:"
    INDEX 01 02:10:63
  TRACK 139 AUDIO
    TITLE "2:cjc105_6429"
    INDEX 01 02:11:04
  TRACK 140 AUDIO
    TITLE "3:cjc105_6430"
    INDEX 01 02:12:64
  TRACK 141 AUDIO
    TITLE "0:"
    INDEX 01 02:14:24
  TRACK 142 AUDIO
    TITLE "2:cjc105_6431"
    INDEX 01 02:14:45
  TRACK 143 AUDIO
    TITLE "3:cjc105_6432"
    INDEX 01 02:15:68
  TRACK 144 AUDIO
    TITLE "0:"
    INDEX 01 02:17:18
  TRACK 145 AUDIO
    TITLE "2:cjc105_6433"
    INDEX 01 02:17:38
  TRACK 146 AUDIO
    TITLE "3:cjc105_6434"
    INDEX 01 02:19:17
  TRACK 147 AUDIO
    TITLE "0:"
    INDEX 01 02:20:48
  TRACK 148 AUDIO
    TITLE "2:cjc105_6435"
    INDEX 01 02:20:69
  TRACK 149 AUDIO
    TITLE "3:cjc105_6436"
    INDEX 01 02:22:04
  TRACK 150 AUDIO
    TITLE "0:"
    INDEX 01 02:23:03
  TRACK 151 AUDIO
    TITLE "2:cjc105_6437"
    INDEX 01 02:23:19
  TRACK 152 AUDIO
    TITLE "3:cjc105_6438"
    INDEX 01 02:24:42
  TRACK 153 AUDIO
    TITLE "0:"
    INDEX 01 02:25:39
  TRACK 154 AUDIO
    TITLE "2:cjc105_6439"
    INDEX 01 02:25:55
  TRACK 155 AUDIO
    TITLE "3:cjc105_6440"
    INDEX 01 02:27:01
  TRACK 156 AUDIO
    TITLE "0:"
    INDEX 01 02:28:12
